# xmcd
#
# Track frame offsets: 
#        150
#        2792
#        19880
#        38005
#        55745
#        73862
#        92257
#        94177
#        113315
#        131100
#        147217
#        164537
#        181995
#        188010
#        208647
#        229797
#        232455
#
# Disc length: 3293 seconds
#
# Revision: 3
# Processed by: cddbd v1.5.2PL0 Copyright (c) Steve Scherf et al.
# Submitted via: ExactAudioCopyFreeDBPlugin 1.0
#
DISCID=e40cdb11
DTITLE=Angie Stone - Stone Love
DYEAR=2004
DGENRE=R&B
TTITLE0=Stoned Love (Intro)
TTITLE1=I Wanna Thank Ya Feat. Snoop Dogg
TTITLE2=My Man Feat. Floetry
TTITLE3=U-Haul
TTITLE4=Stay For A While Feat. Anthony Hamilton
TTITLE5=Lovers' Ghetto
TTITLE6=Little Bit Of This, Little Bit Of That (Interlude)
TTITLE7=You're Gonna Get It Feat. Diamond Stone
TTITLE8=Come Home (Live With Me)
TTITLE9=You Don't Love Me
TTITLE10=Remy Red
TTITLE11=That Kind Of Love Feat. Betty Wright
TTITLE12=Touch It (Interlude)
TTITLE13=Cinderella Ballin'
TTITLE14=Karma Feat. THC
TTITLE15=Wherever You Are (Outro)
TTITLE16=I Wanna Thank Ya (No Rap Mix)
EXTD=
EXTT0=
EXTT1=
EXTT2=
EXTT3=
EXTT4=
EXTT5=
EXTT6=
EXTT7=
EXTT8=
EXTT9=
EXTT10=
EXTT11=
EXTT12=
EXTT13=
EXTT14=
EXTT15=
EXTT16=
PLAYORDER=
